<svg width="823" height="408" viewBox="0 0 823 408" fill="none" xmlns="http://www.w3.org/2000/svg">
<path d="M104 253H720" stroke="white" stroke-width="5"/>
<path d="M104 395H720" stroke="white" stroke-width="5"/>
<path d="M47.2 360.1C41.3333 360.1 35.87 359.147 30.81 357.24C25.8233 355.26 21.46 352.51 17.72 348.99C14.0533 345.397 11.1933 341.18 9.14 336.34C7.08667 331.5 6.06 326.22 6.06 320.5C6.06 314.78 7.08667 309.5 9.14 304.66C11.1933 299.82 14.09 295.64 17.83 292.12C21.57 288.527 25.9333 285.777 30.92 283.87C35.9067 281.89 41.37 280.9 47.31 280.9C53.6167 280.9 59.3733 282 64.58 284.2C69.7867 286.327 74.1867 289.517 77.78 293.77L68.54 302.46C65.7533 299.453 62.6367 297.217 59.19 295.75C55.7433 294.21 52.0033 293.44 47.97 293.44C43.9367 293.44 40.2333 294.1 36.86 295.42C33.56 296.74 30.6633 298.61 28.17 301.03C25.75 303.45 23.8433 306.31 22.45 309.61C21.13 312.91 20.47 316.54 20.47 320.5C20.47 324.46 21.13 328.09 22.45 331.39C23.8433 334.69 25.75 337.55 28.17 339.97C30.6633 342.39 33.56 344.26 36.86 345.58C40.2333 346.9 43.9367 347.56 47.97 347.56C52.0033 347.56 55.7433 346.827 59.19 345.36C62.6367 343.82 65.7533 341.51 68.54 338.43L77.78 347.23C74.1867 351.41 69.7867 354.6 64.58 356.8C59.3733 359 53.58 360.1 47.2 360.1ZM100.116 359V308.62L103.306 311.92H79.436V300.26H134.436V311.92H110.676L113.866 308.62V359H100.116ZM176.97 359.77C172.203 359.77 167.84 358.67 163.88 356.47C159.993 354.27 156.877 350.97 154.53 346.57C152.257 342.097 151.12 336.45 151.12 329.63C151.12 322.737 152.22 317.09 154.42 312.69C156.693 308.29 159.773 305.027 163.66 302.9C167.547 300.7 171.983 299.6 176.97 299.6C182.763 299.6 187.86 300.847 192.26 303.34C196.733 305.833 200.253 309.317 202.82 313.79C205.46 318.263 206.78 323.543 206.78 329.63C206.78 335.717 205.46 341.033 202.82 345.58C200.253 350.053 196.733 353.537 192.26 356.03C187.86 358.523 182.763 359.77 176.97 359.77ZM144.41 380.34V300.26H157.5V314.12L157.06 329.74L158.16 345.36V380.34H144.41ZM175.43 348C178.73 348 181.663 347.267 184.23 345.8C186.87 344.333 188.96 342.207 190.5 339.42C192.04 336.633 192.81 333.37 192.81 329.63C192.81 325.817 192.04 322.553 190.5 319.84C188.96 317.053 186.87 314.927 184.23 313.46C181.663 311.993 178.73 311.26 175.43 311.26C172.13 311.26 169.16 311.993 166.52 313.46C163.88 314.927 161.79 317.053 160.25 319.84C158.71 322.553 157.94 325.817 157.94 329.63C157.94 333.37 158.71 336.633 160.25 339.42C161.79 342.207 163.88 344.333 166.52 345.8C169.16 347.267 172.13 348 175.43 348ZM246.645 359.77C240.631 359.77 235.278 358.487 230.585 355.92C225.891 353.28 222.188 349.687 219.475 345.14C216.761 340.593 215.405 335.423 215.405 329.63C215.405 323.763 216.761 318.593 219.475 314.12C222.188 309.573 225.891 306.017 230.585 303.45C235.278 300.883 240.631 299.6 246.645 299.6C252.731 299.6 258.121 300.883 262.815 303.45C267.581 306.017 271.285 309.537 273.925 314.01C276.638 318.483 277.995 323.69 277.995 329.63C277.995 335.423 276.638 340.593 273.925 345.14C271.285 349.687 267.581 353.28 262.815 355.92C258.121 358.487 252.731 359.77 246.645 359.77ZM246.645 348C250.018 348 253.025 347.267 255.665 345.8C258.305 344.333 260.358 342.207 261.825 339.42C263.365 336.633 264.135 333.37 264.135 329.63C264.135 325.817 263.365 322.553 261.825 319.84C260.358 317.053 258.305 314.927 255.665 313.46C253.025 311.993 250.055 311.26 246.755 311.26C243.381 311.26 240.375 311.993 237.735 313.46C235.168 314.927 233.115 317.053 231.575 319.84C230.035 322.553 229.265 325.817 229.265 329.63C229.265 333.37 230.035 336.633 231.575 339.42C233.115 342.207 235.168 344.333 237.735 345.8C240.375 347.267 243.345 348 246.645 348ZM291.578 359V300.26H305.328V338.98L337.778 300.26H350.318V359H336.568V320.28L304.228 359H291.578ZM320.068 293.33C314.201 293.33 309.691 291.973 306.538 289.26C303.385 286.473 301.771 282.44 301.698 277.16H310.828C310.901 279.8 311.708 281.89 313.248 283.43C314.861 284.97 317.098 285.74 319.958 285.74C322.745 285.74 324.945 284.97 326.558 283.43C328.245 281.89 329.125 279.8 329.198 277.16H338.548C338.475 282.44 336.825 286.473 333.598 289.26C330.445 291.973 325.935 293.33 320.068 293.33ZM381.613 325.56V314.23H421.323V325.56H381.613ZM391.623 280.9C397.27 280.9 402.476 281.89 407.243 283.87C412.01 285.777 416.153 288.527 419.673 292.12C423.266 295.64 426.016 299.82 427.923 304.66C429.903 309.5 430.893 314.78 430.893 320.5C430.893 326.22 429.903 331.5 427.923 336.34C426.016 341.18 423.266 345.397 419.673 348.99C416.153 352.51 412.01 355.26 407.243 357.24C402.476 359.147 397.27 360.1 391.623 360.1C385.096 360.1 379.156 359 373.803 356.8C368.523 354.6 364.123 351.41 360.603 347.23L369.623 338.43C372.483 341.51 375.673 343.82 379.193 345.36C382.786 346.827 386.673 347.56 390.853 347.56C394.52 347.56 397.93 346.9 401.083 345.58C404.236 344.187 406.95 342.317 409.223 339.97C411.496 337.55 413.256 334.69 414.503 331.39C415.75 328.09 416.373 324.46 416.373 320.5C416.373 316.54 415.75 312.91 414.503 309.61C413.256 306.31 411.496 303.487 409.223 301.14C406.95 298.72 404.236 296.85 401.083 295.53C397.93 294.137 394.52 293.44 390.853 293.44C386.673 293.44 382.786 294.21 379.193 295.75C375.673 297.217 372.483 299.49 369.623 302.57L360.603 293.77C364.123 289.59 368.523 286.4 373.803 284.2C379.156 282 385.096 280.9 391.623 280.9ZM487.429 359L466.199 330.84L477.419 323.91L503.599 359H487.429ZM445.299 359V300.26H459.049V359H445.299ZM454.979 335.46V324.02H474.889V335.46H454.979ZM478.739 331.28L465.869 329.74L487.429 300.26H502.169L478.739 331.28ZM537.543 359.77C531.53 359.77 526.176 358.487 521.483 355.92C516.79 353.28 513.086 349.687 510.373 345.14C507.66 340.593 506.303 335.423 506.303 329.63C506.303 323.763 507.66 318.593 510.373 314.12C513.086 309.573 516.79 306.017 521.483 303.45C526.176 300.883 531.53 299.6 537.543 299.6C543.63 299.6 549.02 300.883 553.713 303.45C558.48 306.017 562.183 309.537 564.823 314.01C567.536 318.483 568.893 323.69 568.893 329.63C568.893 335.423 567.536 340.593 564.823 345.14C562.183 349.687 558.48 353.28 553.713 355.92C549.02 358.487 543.63 359.77 537.543 359.77ZM537.543 348C540.916 348 543.923 347.267 546.563 345.8C549.203 344.333 551.256 342.207 552.723 339.42C554.263 336.633 555.033 333.37 555.033 329.63C555.033 325.817 554.263 322.553 552.723 319.84C551.256 317.053 549.203 314.927 546.563 313.46C543.923 311.993 540.953 311.26 537.653 311.26C534.28 311.26 531.273 311.993 528.633 313.46C526.066 314.927 524.013 317.053 522.473 319.84C520.933 322.553 520.163 325.817 520.163 329.63C520.163 333.37 520.933 336.633 522.473 339.42C524.013 342.207 526.066 344.333 528.633 345.8C531.273 347.267 534.243 348 537.543 348ZM634.629 352.4V294.1H604.489L603.939 307.74C603.719 312.873 603.389 317.75 602.949 322.37C602.583 326.917 601.959 331.06 601.079 334.8C600.273 338.54 599.136 341.657 597.669 344.15C596.203 346.643 594.406 348.293 592.279 349.1L576.879 346.9C579.666 347.047 581.939 346.093 583.699 344.04C585.533 341.987 586.963 339.127 587.989 335.46C589.016 331.793 589.786 327.503 590.299 322.59C590.813 317.603 591.179 312.213 591.399 306.42L592.279 282H648.709V352.4H634.629ZM574.239 375.39L574.349 346.9H659.819V375.39H646.619V359H587.549V375.39H574.239ZM696.957 359.77C690.944 359.77 685.59 358.487 680.897 355.92C676.204 353.28 672.5 349.687 669.787 345.14C667.074 340.593 665.717 335.423 665.717 329.63C665.717 323.763 667.074 318.593 669.787 314.12C672.5 309.573 676.204 306.017 680.897 303.45C685.59 300.883 690.944 299.6 696.957 299.6C703.044 299.6 708.434 300.883 713.127 303.45C717.894 306.017 721.597 309.537 724.237 314.01C726.95 318.483 728.307 323.69 728.307 329.63C728.307 335.423 726.95 340.593 724.237 345.14C721.597 349.687 717.894 353.28 713.127 355.92C708.434 358.487 703.044 359.77 696.957 359.77ZM696.957 348C700.33 348 703.337 347.267 705.977 345.8C708.617 344.333 710.67 342.207 712.137 339.42C713.677 336.633 714.447 333.37 714.447 329.63C714.447 325.817 713.677 322.553 712.137 319.84C710.67 317.053 708.617 314.927 705.977 313.46C703.337 311.993 700.367 311.26 697.067 311.26C693.694 311.26 690.687 311.993 688.047 313.46C685.48 314.927 683.427 317.053 681.887 319.84C680.347 322.553 679.577 325.817 679.577 329.63C679.577 333.37 680.347 336.633 681.887 339.42C683.427 342.207 685.48 344.333 688.047 345.8C690.687 347.267 693.657 348 696.957 348ZM741.89 359V300.26H756.3L779.95 341.95H774.23L799.09 300.26H811.96L812.07 359H799.64V315L801.84 316.43L779.84 352.84H773.9L751.79 315.44L754.43 314.78V359H741.89Z" fill="white"/>
<path d="M396 13V211.5M423 57.5V238.5" stroke="#AB5413" stroke-width="5"/>
<path d="M547.882 194.321H355M578 212H355M536.527 172.04L342 66.9999M536.527 151.784L343 49.5" stroke="#AB5413" stroke-width="4.5"/>
<path d="M275.095 99.4756V202.5H344V154.329" stroke="#AB5413" stroke-width="23.5"/>
<path d="M246 121.5V103L263.5 93.5L268 111L246 121.5Z" fill="#AB5413" stroke="#AB5413" stroke-width="5"/>
<path d="M323 61L261.5 94.5L264.518 112.5L331 75.7212L323 61Z" fill="#AB5413" stroke="#AB5413" stroke-width="5"/>
<path d="M325 60L341.51 51.5L342 69L332.204 75L322.898 80L319.959 81.5L325 60Z" fill="#AB5413" stroke="#AB5413" stroke-width="5"/>
</svg>
